# Blender v2.69 (sub 0) OBJ File: 'car.blend'
# www.blender.org
mtllib car.mtl
o Cube
v 0.155166 0.133731 0.181205
v 0.275931 0.133731 0.181205
v 0.155166 0.044687 0.218088
v 0.275931 0.044687 0.218088
v 0.155166 0.007803 0.307132
v 0.275931 0.007803 0.307132
v 0.155166 0.044687 0.396177
v 0.275931 0.044687 0.396177
v 0.155166 0.133731 0.433060
v 0.275931 0.133731 0.433060
v 0.155166 0.222775 0.396177
v 0.275931 0.222775 0.396177
v 0.155166 0.259659 0.307132
v 0.275931 0.259659 0.307132
v 0.155166 0.222775 0.218088
v 0.275931 0.222775 0.218088
v -0.184806 0.212465 0.169078
v -0.184806 0.212465 -0.034651
v 0.196129 0.212465 -0.034651
v 0.196129 0.212465 0.169078
v -0.184806 0.479924 0.169078
v -0.184806 0.479924 -0.034651
v 0.196129 0.479924 -0.034651
v 0.196129 0.479924 0.169078
v -0.174976 0.212465 0.339276
v 0.186299 0.212465 0.339276
v -0.174976 0.375893 0.303748
v 0.186299 0.375893 0.303748
v -0.154530 0.212465 0.460553
v 0.165853 0.212465 0.460553
v -0.154530 0.340279 0.460553
v 0.165853 0.340279 0.460553
v 0.196129 0.364289 -0.034651
v -0.184806 0.364289 -0.034651
v -0.184806 0.212465 -0.396418
v 0.196129 0.212465 -0.396418
v 0.196129 0.364289 -0.396418
v -0.184806 0.364289 -0.396418
v 0.155166 0.133731 -0.366222
v 0.275931 0.133731 -0.366222
v 0.155166 0.044687 -0.329339
v 0.275931 0.044687 -0.329339
v 0.155166 0.007803 -0.240295
v 0.275931 0.007803 -0.240295
v 0.155166 0.044687 -0.151250
v 0.275931 0.044687 -0.151250
v 0.155166 0.133731 -0.114367
v 0.275931 0.133731 -0.114367
v 0.155166 0.222775 -0.151250
v 0.275931 0.222775 -0.151250
v 0.155166 0.259659 -0.240295
v 0.275931 0.259659 -0.240295
v 0.155166 0.222775 -0.329339
v 0.275931 0.222775 -0.329339
v -0.259054 0.133731 0.181205
v -0.138288 0.133731 0.181205
v -0.259054 0.044687 0.218088
v -0.138288 0.044687 0.218088
v -0.259054 0.007803 0.307132
v -0.138288 0.007803 0.307132
v -0.259054 0.044687 0.396177
v -0.138288 0.044687 0.396177
v -0.259054 0.133731 0.433060
v -0.138288 0.133731 0.433060
v -0.259054 0.222775 0.396177
v -0.138288 0.222775 0.396177
v -0.259054 0.259659 0.307132
v -0.138288 0.259659 0.307132
v -0.259054 0.222775 0.218088
v -0.138288 0.222775 0.218088
v -0.259054 0.133731 -0.366222
v -0.138288 0.133731 -0.366222
v -0.259054 0.044687 -0.329339
v -0.138288 0.044687 -0.329339
v -0.259054 0.007803 -0.240295
v -0.138288 0.007803 -0.240295
v -0.259054 0.044687 -0.151250
v -0.138288 0.044687 -0.151250
v -0.259054 0.133731 -0.114367
v -0.138288 0.133731 -0.114367
v -0.259054 0.222775 -0.151250
v -0.138288 0.222775 -0.151250
v -0.259054 0.259659 -0.240295
v -0.138288 0.259659 -0.240295
v -0.259054 0.222775 -0.329339
v -0.138288 0.222775 -0.329339
vt 0.300660 0.009533
vt 0.300660 0.093639
vt 0.362674 0.093639
vt 0.362674 0.009533
vt 0.137492 0.009533
vt 0.137492 0.093639
vt 0.075478 0.093639
vt 0.075478 0.009533
vt 0.013464 0.093639
vt 0.013464 0.009533
vt 0.238645 0.093639
vt 0.238645 0.009533
vt 0.501330 0.526489
vt 0.523763 0.580647
vt 0.501330 0.634805
vt 0.447172 0.657238
vt 0.393014 0.634805
vt 0.370581 0.580647
vt 0.393014 0.526489
vt 0.447172 0.504056
vt 0.318541 0.956548
vt 0.571413 0.965578
vt 0.571413 0.837424
vt 0.571413 0.669164
vt 0.345629 0.669164
vt 0.616113 0.492115
vt 0.616113 0.110827
vt 0.978214 0.110827
vt 0.978214 0.492115
vt 0.157004 0.669164
vt 0.412196 0.110827
vt 0.412196 0.492115
vt 0.022599 0.669164
vt 0.241465 0.482275
vt 0.241465 0.120667
vt 0.186960 0.842897
vt 0.346166 0.649746
vt 0.037299 0.649746
vt 0.037299 0.516060
vt 0.346166 0.516060
vt 0.120452 0.461810
vt 0.120452 0.141131
vt 0.022599 0.810815
vt 0.584573 0.956949
vt 0.910093 0.956949
vt 0.910093 0.858135
vt 0.584573 0.858135
vt 0.647254 0.653920
vt 0.975012 0.653920
vt 0.975012 0.523290
vt 0.647254 0.523290
vt 0.972343 0.669164
vt 0.972343 0.837424
vn -0.630238 0.000000 -0.776360
vn 0.630238 0.000000 -0.776360
vn 0.630238 -0.548967 -0.548967
vn -0.630238 -0.548967 -0.548967
vn 0.630238 -0.776360 0.000000
vn -0.630238 -0.776360 0.000000
vn 0.630238 -0.548967 0.548967
vn -0.630238 -0.548967 0.548967
vn 0.630238 0.000000 0.776360
vn -0.630238 0.000000 0.776360
vn 0.630238 0.548967 0.548967
vn -0.630238 0.548967 0.548967
vn 0.630238 0.776360 0.000000
vn -0.630238 0.776360 0.000000
vn 0.630238 0.548967 -0.548967
vn -0.630238 0.548967 -0.548967
vn -0.644826 0.720176 0.255928
vn -0.577349 0.577349 -0.577349
vn -0.904508 0.301492 -0.301492
vn -0.707083 -0.707083 0.000000
vn -0.714011 -0.699698 0.023652
vn 0.904508 0.301492 -0.301492
vn 0.577349 0.577349 -0.577349
vn 0.644826 0.720176 0.255928
vn 0.714011 -0.699698 0.023652
vn 0.707083 -0.707083 0.000000
vn 0.718833 -0.690359 0.081423
vn -0.718833 -0.690359 0.081423
vn 0.530106 -0.583422 0.615284
vn -0.530106 -0.583422 0.615284
vn -0.744896 0.571490 0.344218
vn 0.744896 0.571490 0.344218
vn 0.537339 0.511582 0.670461
vn -0.537339 0.511582 0.670461
vn 0.577349 -0.577349 -0.577349
vn -0.577349 -0.577349 -0.577349
usemtl None
s 1
f 1/1/1 2/2/2 4/3/3 3/4/4
f 3/5/4 4/6/3 6/7/5 5/8/6
f 5/8/6 6/7/5 8/9/7 7/10/8
f 7/4/8 8/3/7 10/2/9 9/1/10
f 9/1/10 10/2/9 12/11/11 11/12/12
f 11/10/12 12/9/11 14/7/13 13/8/14
f 4/13/3 2/14/2 16/15/15 14/16/13 12/17/11 10/18/9 8/19/7 6/20/5
f 15/12/16 16/11/15 2/2/2 1/1/1
f 13/8/14 14/7/13 16/6/15 15/5/16
f 1/14/1 3/13/4 5/20/6 7/19/8 9/18/10 11/17/12 13/16/14 15/15/16
f 21/21/17 22/22/18 34/23/19 18/24/20 17/25/21
f 34/26/19 33/27/22 37/28/23 38/29/18
f 23/22/23 24/21/24 20/25/25 19/24/26 33/23/22
f 17/25/21 20/25/25 26/30/27 25/30/28
f 17/25/21 18/24/20 19/24/26 20/25/25
f 24/31/24 23/27/23 22/26/18 21/32/17
f 25/30/28 26/30/27 30/33/29 29/33/30
f 24/31/24 21/32/17 27/34/31 28/35/32
f 20/25/25 24/21/24 28/36/32 26/30/27
f 21/21/17 17/25/21 25/30/28 27/36/31
f 32/37/33 31/38/34 29/39/30 30/40/29
f 28/35/32 27/34/31 31/41/34 32/42/33
f 26/30/27 28/36/32 32/43/33 30/33/29
f 27/36/31 25/30/28 29/33/30 31/43/34
f 22/44/18 23/45/23 33/46/22 34/47/19
f 38/48/18 37/49/23 36/50/35 35/51/36
f 19/24/26 18/24/20 35/52/36 36/52/35
f 33/23/22 19/24/26 36/52/35 37/53/23
f 18/24/20 34/23/19 38/53/18 35/52/36
f 39/1/1 40/2/2 42/3/3 41/4/4
f 41/5/4 42/6/3 44/7/5 43/8/6
f 43/8/6 44/7/5 46/9/7 45/10/8
f 45/4/8 46/3/7 48/2/9 47/1/10
f 47/1/10 48/2/9 50/11/11 49/12/12
f 49/10/12 50/9/11 52/7/13 51/8/14
f 42/13/3 40/14/2 54/15/15 52/16/13 50/17/11 48/18/9 46/19/7 44/20/5
f 53/12/16 54/11/15 40/2/2 39/1/1
f 51/8/14 52/7/13 54/6/15 53/5/16
f 39/14/1 41/13/4 43/20/6 45/19/8 47/18/10 49/17/12 51/16/14 53/15/16
f 55/1/1 56/2/2 58/3/3 57/4/4
f 57/5/4 58/6/3 60/7/5 59/8/6
f 59/8/6 60/7/5 62/9/7 61/10/8
f 61/4/8 62/3/7 64/2/9 63/1/10
f 63/1/10 64/2/9 66/11/11 65/12/12
f 65/10/12 66/9/11 68/7/13 67/8/14
f 58/13/3 56/14/2 70/15/15 68/16/13 66/17/11 64/18/9 62/19/7 60/20/5
f 69/12/16 70/11/15 56/2/2 55/1/1
f 67/8/14 68/7/13 70/6/15 69/5/16
f 55/14/1 57/13/4 59/20/6 61/19/8 63/18/10 65/17/12 67/16/14 69/15/16
f 71/1/1 72/2/2 74/3/3 73/4/4
f 73/5/4 74/6/3 76/7/5 75/8/6
f 75/8/6 76/7/5 78/9/7 77/10/8
f 77/4/8 78/3/7 80/2/9 79/1/10
f 79/1/10 80/2/9 82/11/11 81/12/12
f 81/10/12 82/9/11 84/7/13 83/8/14
f 74/13/3 72/14/2 86/15/15 84/16/13 82/17/11 80/18/9 78/19/7 76/20/5
f 85/12/16 86/11/15 72/2/2 71/1/1
f 83/8/14 84/7/13 86/6/15 85/5/16
f 71/14/1 73/13/4 75/20/6 77/19/8 79/18/10 81/17/12 83/16/14 85/15/16
